<svg width="50" height="50" viewBox="0 0 50 50" fill="none" xmlns="http://www.w3.org/2000/svg">
<g id="24 / symbols / instagram">
<path id="icon" fill-rule="evenodd" clip-rule="evenodd" d="M35 0H15C6.71573 0 0 6.71573 0 15V35C0 43.2843 6.71573 50 15 50H35C43.2843 50 50 43.2843 50 35V15C50 6.71573 43.2843 0 35 0ZM4.9998 15C4.9998 9.47714 9.47696 4.99999 14.9998 4.99999H34.9998C40.5226 4.99999 44.9998 9.47714 44.9998 15V35C44.9998 40.5228 40.5226 45 34.9998 45H14.9998C9.47696 45 4.9998 40.5228 4.9998 35V15ZM24.9998 37.5C18.0962 37.5 12.4998 31.9035 12.4998 25C12.4998 18.0964 18.0962 12.5 24.9998 12.5C31.9034 12.5 37.4998 18.0964 37.4998 25C37.4998 31.9035 31.9034 37.5 24.9998 37.5ZM25.0002 32.5C29.1423 32.5 32.5002 29.1421 32.5002 25C32.5002 20.8579 29.1423 17.5 25.0002 17.5C20.8581 17.5 17.5002 20.8579 17.5002 25C17.5002 29.1421 20.8581 32.5 25.0002 32.5ZM39.9998 12.5C39.9998 13.8807 38.8805 15 37.4998 15C36.1191 15 34.9998 13.8807 34.9998 12.5C34.9998 11.1193 36.1191 10 37.4998 10C38.8805 10 39.9998 11.1193 39.9998 12.5Z" fill="white"/>
</g>
</svg>
