<svg width="50" height="50" viewBox="0 0 50 50" fill="none" xmlns="http://www.w3.org/2000/svg">
<g id="24 / symbols / linkedin">
<path id="icon" fill-rule="evenodd" clip-rule="evenodd" d="M5 0H45C47.7614 0 50 2.23858 50 5V45C50 47.7614 47.7614 50 45 50H5C2.23858 50 0 47.7614 0 45V5C0 2.23858 2.23858 0 5 0ZM4.9998 4.99999V45H44.9998V4.99999H4.9998ZM27.4998 17.5C26.2054 17.5 24.8379 17.8957 23.6302 18.6304L22.4998 17.5H19.9998V35H24.9998V25C24.9998 23.5606 26.4847 22.5 27.4998 22.5H29.9998C31.0149 22.5 32.4998 23.5606 32.4998 25V35H37.4998V25C37.4998 20.368 33.4847 17.5 29.9998 17.5H27.4998ZM14.9998 15C16.3805 15 17.4998 13.8807 17.4998 12.5C17.4998 11.1193 16.3805 10 14.9998 10C13.6191 10 12.4998 11.1193 12.4998 12.5C12.4998 13.8807 13.6191 15 14.9998 15ZM12.4998 35H17.4998V17.5H12.4998V35Z" fill="white"/>
</g>
</svg>
