<svg width="50" height="50" viewBox="0 0 50 50" fill="none" xmlns="http://www.w3.org/2000/svg">
<g id="24 / basic / user">
<path id="icon" fill-rule="evenodd" clip-rule="evenodd" d="M25 50C11.1929 50 0 38.8071 0 25C0 11.1929 11.1929 0 25 0C38.8071 0 50 11.1929 50 25C50 38.8071 38.8071 50 25 50ZM41.8169 36.6468C44.1103 33.3416 45.4544 29.3277 45.4544 25C45.4544 13.7033 36.2966 4.54544 24.9998 4.54544C13.7031 4.54544 4.54528 13.7033 4.54528 25C4.54528 29.3278 5.88935 33.3417 8.18284 36.647C10.7406 33.2683 16.7512 31.8182 24.9999 31.8182C33.2485 31.8182 39.259 33.2683 41.8169 36.6468ZM38.556 40.3176C37.8907 37.9258 33.1121 36.3636 24.9999 36.3636C16.8876 36.3636 12.1089 37.9258 11.4438 40.3177C15.0529 43.5141 19.7997 45.4545 24.9998 45.4545C30.2 45.4545 34.9469 43.514 38.556 40.3176ZM25.0002 11.3636C19.4981 11.3636 15.9093 15.354 15.9093 20.4545C15.9093 28.244 19.9112 31.8182 25.0002 31.8182C30.0413 31.8182 34.0911 28.3627 34.0911 20.9091C34.0911 15.7308 30.487 11.3636 25.0002 11.3636ZM20.4545 20.4546C20.4545 25.612 22.3141 27.2727 25 27.2727C27.6766 27.2727 29.5455 25.6782 29.5455 20.9091C29.5455 18.0691 27.7629 15.9091 25 15.9091C22.1221 15.9091 20.4545 17.7633 20.4545 20.4546Z" fill="white"/>
</g>
</svg>
